# xmcd
#
# Track frame offsets:
#	151
#	11392
#	27655
#	40135
#	51676
#	66341
#	82436
#	96521
#	109173
#	125008
#	138323
#	155956
#	169374
#	180990
#
# Disc length: 2694 seconds
#
# Revision: 0
# Processed by: cddbd v1.5.1PL0 Copyright (c) Steve Scherf et al.
# Submitted via: dBpowerAMP V4.0
#
DISCID=d60a840e
DTITLE=percy sledge - walking in the sun
DYEAR=1900
DGENRE=
TTITLE0=Baby help me
TTITLE1=Just out of reach
TTITLE2=Sudden stop
TTITLE3=Do me baby
TTITLE4=Keep the fire burning
TTITLE5=Out of left field
TTITLE6=Save me for last
TTITLE7=The dark end of the street
TTITLE8=Walking in the sun
TTITLE9=I believe in you
TTITLE10=Make it good and make it last
TTITLE11=My girl
TTITLE12=That didn't hurt too bad
TTITLE13=The good love
EXTD=
EXTT0=
EXTT1=
EXTT2=
EXTT3=
EXTT4=
EXTT5=
EXTT6=
EXTT7=
EXTT8=
EXTT9=
EXTT10=
EXTT11=
EXTT12=
EXTT13=
PLAYORDER=
